<svg width="76" height="30" viewBox="0 0 76 30" fill="none" xmlns="http://www.w3.org/2000/svg">
<path fill-rule="evenodd" clip-rule="evenodd" d="M4.3631 12.1611H0V0.835947H4.31761C5.48398 0.835947 6.48918 1.06246 7.33565 1.51546C8.18211 1.96963 8.83597 2.61878 9.29714 3.46524C9.75832 4.31171 9.98832 5.32514 9.98832 6.50668C9.98832 7.68123 9.75946 8.69231 9.30062 9.53877C8.84178 10.3852 8.19266 11.0344 7.35087 11.4851C6.51024 11.9357 5.51429 12.1611 4.3631 12.1611ZM3.0718 3.45006V9.54696H4.24167C4.80443 9.54696 5.28432 9.45822 5.68245 9.28075C6.08058 9.10329 6.38295 8.79272 6.59077 8.34906C6.79859 7.90656 6.90249 7.29127 6.90249 6.50668C6.90249 5.71509 6.79745 5.09864 6.58729 4.65497C6.37597 4.21131 6.06657 3.89957 5.6556 3.71977C5.2458 3.53997 4.74374 3.45006 4.15063 3.45006H3.0718ZM10.6258 12.1611V3.66373H13.6812V12.1611H10.6258ZM12.1459 2.79625C11.7303 2.79625 11.3765 2.65964 11.0823 2.38644C10.7881 2.11207 10.641 1.78283 10.641 1.39871C10.641 1.00758 10.7881 0.677169 11.0823 0.406301C11.3765 0.135432 11.7303 0 12.1459 0C12.5616 0 12.9165 0.135432 13.2107 0.406301C13.505 0.677169 13.6509 1.00524 13.6509 1.39053C13.6509 1.78048 13.505 2.11207 13.2107 2.38644C12.9165 2.65964 12.5616 2.79625 12.1459 2.79625ZM22.1634 6.42962H19.3672C19.3461 6.1716 19.2235 5.96728 18.9982 5.81783C18.7729 5.66839 18.5102 5.59366 18.2113 5.59366C17.9474 5.59366 17.7244 5.64037 17.5422 5.73494C17.3601 5.82835 17.2691 5.96378 17.2691 6.14124C17.2691 6.26734 17.3228 6.38759 17.4325 6.4985C17.5411 6.60942 17.7547 6.69348 18.0747 6.74953L19.8073 7.05308C20.6736 7.20486 21.3216 7.46873 21.7501 7.84351C22.1774 8.21829 22.3922 8.72033 22.3922 9.34846C22.3922 9.95675 22.2148 10.4833 21.8599 10.9258C21.5049 11.3695 21.0204 11.7116 20.4039 11.9521C19.7886 12.1926 19.0881 12.3128 18.3023 12.3128C17.0052 12.3128 15.9906 12.049 15.2586 11.5189C14.5266 10.9889 14.1167 10.2918 14.0303 9.42553H17.0554C17.1009 9.69406 17.2387 9.89955 17.4664 10.0443C17.694 10.1891 17.9778 10.2615 18.3175 10.2615C18.6012 10.2615 18.8348 10.2125 19.0169 10.1167C19.199 10.021 19.2901 9.88553 19.2901 9.71391C19.2901 9.41502 18.9667 9.2072 18.3175 9.09044L16.8125 8.81724C15.9509 8.65963 15.3053 8.37241 14.8745 7.95443C14.4437 7.53645 14.2288 6.99237 14.2288 6.32337C14.2288 5.73026 14.3864 5.2294 14.7028 4.81843C15.0204 4.40862 15.471 4.09572 16.056 3.87972C16.6421 3.6649 17.3391 3.55631 18.1506 3.55631C19.3765 3.55631 20.3432 3.81084 21.0507 4.32106C21.7571 4.8301 22.1283 5.53295 22.1634 6.42962ZM25.4337 8.61875C25.4453 8.90947 25.5037 9.16517 25.6099 9.387C25.729 9.63569 25.8972 9.82716 26.1155 9.96493C26.3338 10.1015 26.5872 10.1692 26.8756 10.1692C27.0834 10.1692 27.2725 10.1401 27.4418 10.0829C27.6123 10.0245 27.757 9.93924 27.8796 9.82715C28.0011 9.71624 28.0922 9.58198 28.1529 9.42553H30.9351C30.8382 10.0128 30.614 10.523 30.2614 10.9562C29.91 11.3893 29.443 11.7244 28.8639 11.9602C28.2836 12.1961 27.6006 12.3128 26.8149 12.3128C25.9077 12.3128 25.1266 12.1401 24.4705 11.7933C23.8143 11.4454 23.3111 10.9457 22.9608 10.2918C22.6117 9.63802 22.4366 8.85226 22.4366 7.93458C22.4366 7.05893 22.6129 6.29186 22.9643 5.6357C23.3169 4.97955 23.8155 4.46934 24.4588 4.1039C25.1021 3.73962 25.8621 3.55631 26.7389 3.55631C27.3823 3.55631 27.9637 3.65672 28.4833 3.85753C29.0028 4.05718 29.4476 4.34557 29.8178 4.72385C30.1879 5.10097 30.4704 5.55864 30.6689 6.09571C30.8662 6.63278 30.9655 7.24106 30.9655 7.9194V8.61875H25.4337ZM25.4512 6.94685H28.0875C28.0641 6.7507 28.0198 6.5779 27.9556 6.42612C27.854 6.19027 27.7045 6.01047 27.5072 5.88671C27.3087 5.76179 27.0635 5.69991 26.7693 5.69991C26.4751 5.69991 26.2299 5.76179 26.0315 5.88671C25.8342 6.01047 25.6847 6.19027 25.5831 6.42612C25.5189 6.5779 25.4745 6.7507 25.4512 6.94685ZM34.4155 7.38818V12.1611H31.3601V3.66373H34.3852V5.2901H34.4459C34.6327 4.7472 34.9409 4.32339 35.3694 4.01633C35.7967 3.71044 36.3256 3.55631 36.9538 3.55631C37.5574 3.55631 38.0805 3.69409 38.5241 3.96729C38.9666 4.24049 39.3098 4.61877 39.5539 5.0998C39.7967 5.58082 39.9181 6.13073 39.9181 6.74953V12.1611H36.8627V7.38818C36.8627 6.9667 36.7564 6.63629 36.5439 6.39577C36.3303 6.15526 36.0314 6.03499 35.6461 6.03499C35.3986 6.03499 35.1814 6.0887 34.9969 6.19845C34.8113 6.30703 34.6689 6.46231 34.5673 6.66196C34.4657 6.86161 34.4155 7.10447 34.4155 7.38818ZM36.7564 2.67482C36.4681 2.67482 36.2229 2.62929 36.0232 2.53822C35.8224 2.44716 35.6508 2.34091 35.506 2.21949C35.3612 2.0969 35.227 1.99065 35.1032 1.89959C34.9794 1.80852 34.8463 1.76298 34.7039 1.76298C34.5264 1.76298 34.3887 1.83536 34.2895 1.98014C34.1914 2.12375 34.1365 2.33508 34.126 2.61412H32.621C32.6362 1.81319 32.8242 1.21774 33.1838 0.82778C33.5434 0.437823 33.9847 0.242843 34.5066 0.242843C34.7903 0.242843 35.0332 0.287211 35.2363 0.375944C35.4395 0.464676 35.6146 0.568592 35.764 0.687681C35.9135 0.80677 36.0513 0.910672 36.175 0.999405C36.2988 1.08814 36.4272 1.13251 36.5591 1.13251C36.7716 1.13251 36.9222 1.05779 37.0109 0.908347C37.0997 0.758903 37.1464 0.552242 37.1523 0.288378H38.642C38.6315 1.06829 38.4435 1.6614 38.0793 2.06654C37.7138 2.47284 37.2737 2.67482 36.7564 2.67482ZM44.7366 12.3128C43.8142 12.3128 43.0249 12.1295 42.3688 11.7618C41.7126 11.3952 41.2106 10.8826 40.8638 10.2265C40.517 9.5703 40.3431 8.80673 40.3431 7.93458C40.3431 7.0636 40.517 6.30003 40.8638 5.64387C41.2106 4.98772 41.7126 4.47516 42.3688 4.10739C43.0249 3.74078 43.8142 3.55631 44.7366 3.55631C45.6589 3.55631 46.4482 3.74078 47.1043 4.10739C47.7605 4.47516 48.2625 4.98772 48.6093 5.64387C48.956 6.30003 49.13 7.0636 49.13 7.93458C49.13 8.80673 48.956 9.5703 48.6093 10.2265C48.2625 10.8826 47.7605 11.3952 47.1043 11.7618C46.4482 12.1295 45.6589 12.3128 44.7366 12.3128ZM44.7517 10.0326C45.0156 10.0326 45.2409 9.94974 45.4289 9.78279C45.6157 9.61466 45.7605 9.37298 45.862 9.05658C45.9636 8.73901 46.0139 8.36073 46.0139 7.9194C46.0139 7.47457 45.9636 7.09629 45.862 6.7869C45.7605 6.47867 45.6157 6.24282 45.4289 6.08053C45.2409 5.91824 45.0156 5.83769 44.7517 5.83769C44.4832 5.83769 44.252 5.91824 44.057 6.08053C43.8609 6.24282 43.7126 6.47867 43.6122 6.7869C43.5106 7.09629 43.4593 7.47457 43.4593 7.9194C43.4593 8.36073 43.5106 8.73901 43.6122 9.05658C43.7126 9.37298 43.8609 9.61466 44.057 9.78279C44.252 9.94974 44.4832 10.0326 44.7517 10.0326Z" fill="white"/>
<path fill-rule="evenodd" clip-rule="evenodd" d="M3.0718 14.4564V25.7827H0V14.4564H3.0718ZM6.81025 21.0087V25.7827H3.75482V17.2842H6.77993V18.9118H6.84064C7.02861 18.3689 7.33564 17.945 7.76412 17.638C8.19261 17.3309 8.72035 17.178 9.34965 17.178C9.9521 17.178 10.4751 17.3146 10.9188 17.589C11.3625 17.8622 11.7058 18.2393 11.9486 18.7215C12.1915 19.2025 12.314 19.7524 12.314 20.3712V25.7827H9.25741V21.0087C9.25741 20.5883 9.15117 20.2579 8.93867 20.0174C8.72618 19.7769 8.42733 19.6555 8.04204 19.6555C7.79335 19.6555 7.57616 19.7104 7.39169 19.8201C7.20721 19.9287 7.06364 20.0828 6.96207 20.2836C6.86049 20.4833 6.81025 20.725 6.81025 21.0087ZM13.5902 19.5037H12.5102V17.2842H13.5902V15.2632H16.6456V17.2842H18.105V19.5037H16.6456V23.046C16.6456 23.2235 16.6911 23.3566 16.7822 23.4453C16.8733 23.534 17.0204 23.5784 17.2235 23.5784C17.3146 23.5784 17.422 23.5679 17.5458 23.5481C17.6707 23.5282 17.7606 23.5072 17.8155 23.4873L18.2568 25.6461C17.9077 25.7419 17.5902 25.8107 17.3065 25.8504C17.0227 25.8913 16.7437 25.9123 16.4705 25.9123C15.5178 25.9123 14.7997 25.694 14.3152 25.2585C13.8319 24.8218 13.5902 24.1809 13.5902 23.3344V19.5037ZM21.1394 22.2404C21.1499 22.5311 21.2095 22.7868 21.3158 23.0087C21.4349 23.2562 21.603 23.4488 21.8213 23.5854C22.0385 23.7232 22.2918 23.7909 22.5814 23.7909C22.7892 23.7909 22.9772 23.7617 23.1476 23.7033C23.3169 23.645 23.4628 23.5609 23.5843 23.4488C23.7057 23.3379 23.7968 23.2036 23.8586 23.046H26.6397C26.544 23.6345 26.3198 24.1447 25.9672 24.5778C25.6146 25.011 25.1488 25.3461 24.5685 25.5807C23.9882 25.8166 23.3052 25.9345 22.5206 25.9345C21.6135 25.9345 20.8312 25.7605 20.1751 25.4138C19.5189 25.067 19.0157 24.5661 18.6666 23.9123C18.3164 23.2585 18.1424 22.4739 18.1424 21.5562C18.1424 20.6794 18.3175 19.9135 18.6701 19.2574C19.0227 18.6012 19.5201 18.0898 20.1634 17.7255C20.8079 17.3601 21.568 17.178 22.4436 17.178C23.0881 17.178 23.6695 17.2784 24.1891 17.478C24.7086 17.6788 25.1523 17.9672 25.5224 18.3443C25.8925 18.7226 26.1762 19.1803 26.3735 19.7174C26.572 20.2544 26.6701 20.8616 26.6701 21.5411V22.2404H21.1394ZM21.157 20.5685H23.7932C23.7699 20.3724 23.7256 20.1984 23.6602 20.0478C23.5586 19.8119 23.4091 19.6321 23.2118 19.5084C23.0145 19.3835 22.7681 19.3216 22.4751 19.3216C22.1809 19.3216 21.9345 19.3835 21.7372 19.5084C21.5399 19.6321 21.3905 19.8119 21.2889 20.0478C21.2235 20.1984 21.1792 20.3724 21.157 20.5685ZM30.1202 14.4564V25.7827H27.0647V14.4564H30.1202ZM30.8499 25.7827V17.2842H33.9053V25.7827H30.8499ZM32.37 16.4179C31.9543 16.4179 31.5994 16.2813 31.3052 16.0069C31.011 15.7337 30.8651 15.4045 30.8651 15.0192C30.8651 14.6292 31.011 14.2988 31.3052 14.0268C31.5994 13.7559 31.9543 13.6205 32.37 13.6205C32.7856 13.6205 33.1394 13.7559 33.4336 14.0268C33.7279 14.2988 33.8749 14.6269 33.8749 15.0122C33.8749 15.4022 33.7279 15.7337 33.4336 16.0069C33.1394 16.2813 32.7856 16.4179 32.37 16.4179ZM38.6934 29.1417C37.4161 29.1417 36.419 28.879 35.7021 28.3513C34.9853 27.8247 34.5988 27.1511 34.5428 26.3303H37.4768C37.5072 26.5124 37.5807 26.6595 37.6975 26.7705C37.8142 26.8825 37.966 26.9631 38.1528 27.0145C38.3408 27.0647 38.551 27.0904 38.7845 27.0904C39.1791 27.0904 39.506 26.9935 39.7652 26.8008C40.0232 26.6082 40.1528 26.2638 40.1528 25.7675V24.3233H40.0618C39.9543 24.607 39.7862 24.8499 39.5562 25.053C39.325 25.2562 39.0507 25.4103 38.7308 25.5165C38.412 25.6228 38.0594 25.6765 37.6741 25.6765C37.0717 25.6765 36.5171 25.5352 36.0104 25.2538C35.5037 24.9725 35.0962 24.5288 34.7903 23.9205C34.4833 23.3122 34.3303 22.5195 34.3303 21.5411C34.3303 20.5125 34.4914 19.6777 34.8125 19.0367C35.1348 18.3957 35.548 17.9252 36.0559 17.6263C36.5626 17.3274 37.0962 17.178 37.659 17.178C38.0793 17.178 38.4493 17.2504 38.7693 17.3951C39.088 17.5387 39.3577 17.7326 39.5784 17.9766C39.799 18.2194 39.9648 18.4856 40.0769 18.774H40.1376V17.2842H43.1627V25.7675C43.1627 26.4821 42.9759 27.0915 42.6035 27.5959C42.231 28.0991 41.7103 28.4832 41.0413 28.7471C40.3734 29.011 39.59 29.1417 38.6934 29.1417ZM38.7996 23.5025C39.22 23.5025 39.5503 23.3286 39.7908 22.9818C40.0325 22.6339 40.1528 22.154 40.1528 21.5411C40.1528 21.1208 40.0979 20.76 39.9894 20.4576C39.8796 20.1564 39.7255 19.924 39.5258 19.7629C39.325 19.6006 39.0833 19.5189 38.7996 19.5189C38.5206 19.5189 38.2824 19.6006 38.0851 19.7629C37.8878 19.924 37.736 20.1564 37.6332 20.4576C37.5282 20.76 37.4768 21.1208 37.4768 21.5411C37.4768 21.9567 37.5282 22.3116 37.6332 22.6047C37.736 22.8989 37.8878 23.1219 38.0851 23.2749C38.2824 23.4266 38.5206 23.5025 38.7996 23.5025ZM46.5847 22.2404C46.5952 22.5311 46.6548 22.7868 46.7611 23.0087C46.8802 23.2562 47.0483 23.4488 47.2666 23.5854C47.4838 23.7232 47.7371 23.7909 48.0267 23.7909C48.2345 23.7909 48.4225 23.7617 48.5929 23.7033C48.7622 23.645 48.9082 23.5609 49.0296 23.4488C49.151 23.3379 49.2421 23.2036 49.3039 23.046H52.085C51.9893 23.6345 51.7651 24.1447 51.4125 24.5778C51.0611 25.011 50.5941 25.3461 50.0138 25.5807C49.4335 25.8166 48.7505 25.9345 47.9659 25.9345C47.0588 25.9345 46.2765 25.7605 45.6204 25.4138C44.9642 25.067 44.461 24.5661 44.1119 23.9123C43.7617 23.2585 43.5877 22.4739 43.5877 21.5562C43.5877 20.6794 43.764 19.9135 44.1154 19.2574C44.468 18.6012 44.9654 18.0898 45.6087 17.7255C46.2532 17.3601 47.0132 17.178 47.8901 17.178C48.5334 17.178 49.1148 17.2784 49.6344 17.478C50.1539 17.6788 50.5987 17.9672 50.9677 18.3443C51.3378 18.7226 51.6215 19.1803 51.82 19.7174C52.0173 20.2544 52.1154 20.8616 52.1154 21.5411V22.2404H46.5847ZM46.6011 20.5685H49.2386C49.2153 20.3724 49.1709 20.1984 49.1055 20.0478C49.0039 19.8119 48.8544 19.6321 48.6571 19.5084C48.4598 19.3835 48.2135 19.3216 47.9205 19.3216C47.6262 19.3216 47.3798 19.3835 47.1825 19.5084C46.9852 19.6321 46.8358 19.8119 46.7342 20.0478C46.6688 20.1984 46.6256 20.3724 46.6011 20.5685ZM55.5655 21.0087V25.7827H52.51V17.2842H55.5351V18.9118H55.5958C55.7838 18.3689 56.092 17.945 56.5194 17.638C56.9478 17.3309 57.4767 17.178 58.1049 17.178C58.7073 17.178 59.2304 17.3146 59.674 17.589C60.1177 17.8622 60.4609 18.2393 60.7038 18.7215C60.9478 19.2025 61.0692 19.7524 61.0692 20.3712V25.7827H58.0138V21.0087C58.0138 20.5883 57.9076 20.2579 57.6939 20.0174C57.4814 19.7769 57.1825 19.6555 56.7972 19.6555C56.5485 19.6555 56.3326 19.7104 56.1469 19.8201C55.9624 19.9287 55.8188 20.0828 55.7184 20.2836C55.6169 20.4833 55.5655 20.725 55.5655 21.0087ZM62.3454 19.5037H61.2665V17.2842H62.3454V15.2632H65.4008V17.2842H66.8602V19.5037H65.4008V23.046C65.4008 23.2235 65.4463 23.3566 65.5374 23.4453C65.6284 23.534 65.7756 23.5784 65.9787 23.5784C66.0698 23.5784 66.1772 23.5679 66.3022 23.5481C66.4259 23.5282 66.5158 23.5072 66.5719 23.4873L67.012 25.6461C66.6629 25.7419 66.3465 25.8107 66.0628 25.8504C65.7779 25.8913 65.5 25.9123 65.2257 25.9123C64.2729 25.9123 63.5549 25.694 63.0716 25.2585C62.5871 24.8218 62.3454 24.1809 62.3454 23.3344V19.5037ZM69.8947 22.2404C69.9063 22.5311 69.9647 22.7868 70.0709 23.0087C70.19 23.2562 70.3582 23.4488 70.5765 23.5854C70.7948 23.7232 71.0481 23.7909 71.3365 23.7909C71.5444 23.7909 71.7335 23.7617 71.9028 23.7033C72.0733 23.645 72.218 23.5609 72.3406 23.4488C72.4621 23.3379 72.5532 23.2036 72.6139 23.046H75.3961C75.2992 23.6345 75.075 24.1447 74.7236 24.5778C74.371 25.011 73.9051 25.3461 73.3249 25.5807C72.7446 25.8166 72.0616 25.9345 71.2759 25.9345C70.3687 25.9345 69.5876 25.7605 68.9303 25.4138C68.2741 25.067 67.7721 24.5661 67.4218 23.9123C67.0727 23.2585 66.8976 22.4739 66.8976 21.5562C66.8976 20.6794 67.0739 19.9135 67.4265 19.2574C67.7779 18.6012 68.2765 18.0898 68.9198 17.7255C69.5631 17.3601 70.3231 17.178 71.1999 17.178C71.8433 17.178 72.4247 17.2784 72.9442 17.478C73.4638 17.6788 73.9086 17.9672 74.2787 18.3443C74.6489 18.7226 74.9326 19.1803 75.1299 19.7174C75.3272 20.2544 75.4264 20.8616 75.4264 21.5411V22.2404H69.8947ZM69.9122 20.5685H72.5485C72.5251 20.3724 72.4807 20.1984 72.4165 20.0478C72.3149 19.8119 72.1655 19.6321 71.967 19.5084C71.7697 19.3835 71.5245 19.3216 71.2303 19.3216C70.9361 19.3216 70.6909 19.3835 70.4924 19.5084C70.2951 19.6321 70.1457 19.8119 70.0441 20.0478C69.9799 20.1984 69.9355 20.3724 69.9122 20.5685Z" fill="#FF2600"/>
</svg>
